<svg xmlns="http://www.w3.org/2000/svg" viewBox="0 0 64 64" role="img" aria-label="PSCM — Petkasem Ceramic Machine">
  <!-- PSCM industrial maker's-mark stamp. Rounded-square steel-die frame
       with PSCM set 2x2 (P S / C M) so each letter stays legible small.
       Amber on transparent; works as <img>, favicon, or OG asset. -->
  <rect x="4" y="4" width="56" height="56" rx="11" fill="none" stroke="#E8A317" stroke-width="3.5"/>
  <rect x="9.5" y="9.5" width="45" height="45" rx="7" fill="none" stroke="#E8A317" stroke-width="1" opacity="0.35"/>
  <g fill="#E8A317">
    <!-- P (top-left) -->
    <path d="M14 14h7.4c3.7 0 6.1 2.2 6.1 5.6 0 3.4-2.4 5.6-6.1 5.6H18v5.2h-4zM18 17.4v4.4h3c1.6 0 2.5-.8 2.5-2.2s-.9-2.2-2.5-2.2z"/>
    <!-- S (top-right) -->
    <path d="M43.2 13.6c2.7 0 4.8 1 6 2.7l-2.7 2.3c-.8-1-1.9-1.6-3.3-1.6-1.2 0-2 .5-2 1.3 0 .9 1 1.2 2.7 1.6 2.7.6 5.6 1.5 5.6 4.8 0 3-2.5 4.8-6.2 4.8-3 0-5.3-1.1-6.6-3l2.8-2.2c.9 1.2 2.2 1.9 3.9 1.9 1.4 0 2.2-.5 2.2-1.4 0-1-1.1-1.3-2.9-1.7-2.6-.6-5.3-1.5-5.3-4.7 0-2.9 2.4-4.8 6-4.8z"/>
    <!-- C (bottom-left) -->
    <path d="M21.8 33.4c2.7 0 5 1.2 6.3 3.2l-3 2.1c-.7-1-1.9-1.7-3.3-1.7-2.2 0-3.8 1.7-3.8 4.2s1.6 4.2 3.8 4.2c1.4 0 2.6-.7 3.3-1.7l3 2.1c-1.3 2-3.6 3.2-6.3 3.2-4.6 0-7.9-3.3-7.9-7.8s3.3-7.8 7.9-7.8z"/>
    <!-- M (bottom-right) -->
    <path d="M37 33.7h4.1l3.4 6.7 3.4-6.7H52v16.6h-3.9v-9.4l-3.6 6.9-3.6-6.9v9.4H37z"/>
  </g>
</svg>
