<svg width="512" height="512" viewBox="0 0 512 512" fill="none" xmlns="http://www.w3.org/2000/svg">
<g clip-path="url(#clip0_322_12)">
<path d="M256 0C115.041 0 0 115.049 0 256C0 396.959 115.049 512 256 512C396.959 512 512 396.951 512 256C512 115.041 396.951 0 256 0ZM256 482C131.383 482 30 380.617 30 256C30 131.383 131.383 30 256 30C380.617 30 482 131.383 482 256C482 380.617 380.617 482 256 482Z" fill="white"/>
<path d="M256 61C148.405 61 60 148.324 60 256C60 363.562 148.287 451 256 451C363.595 451 452 363.676 452 256C452 148.438 363.713 61 256 61ZM271 420.319V391H241V420.319C161.443 413.202 97.896 350.065 90.693 271H120V241H90.693C97.896 161.935 161.443 98.798 241 91.681V121H271V91.681C350.557 98.798 414.104 161.935 421.307 241H392V270.9H421.307C414.104 349.965 350.557 413.202 271 420.319Z" fill="white"/>
<path d="M356.606 176.607L335.394 155.393L275.39 215.397C269.514 212.581 262.939 211 256 211C249.061 211 242.486 212.581 236.611 215.397L176.607 155.393L155.394 176.606L215.398 236.61C212.581 242.486 211 249.061 211 256C211 280.813 231.187 301 256 301C280.813 301 301 280.813 301 256C301 249.061 299.419 242.486 296.602 236.611L356.606 176.607ZM256 271C247.729 271 241 264.271 241 256C241 247.729 247.729 241 256 241C264.271 241 271 247.729 271 256C271 264.271 264.271 271 256 271Z" fill="white"/>
</g>
<defs>
<clipPath id="clip0_322_12">
<rect width="512" height="512" fill="white"/>
</clipPath>
</defs>
</svg>
