<svg width="68" height="93" viewBox="0 0 68 93" fill="none" xmlns="http://www.w3.org/2000/svg">
<path d="M34.2521 71.7428V49.8678M34.2521 49.8678C36.3603 49.8694 38.4602 49.6049 40.5021 49.0803M34.2521 49.8678C32.1439 49.8694 30.044 49.6049 28.0021 49.0803M43.6271 80.2386C37.4324 81.415 31.0717 81.415 24.8771 80.2386M40.5021 90.1678C36.3468 90.6028 32.1574 90.6028 28.0021 90.1678M43.6271 71.7428V70.9428C43.6271 66.847 46.3688 63.347 49.9104 61.2928C55.8604 57.8472 60.508 52.5354 63.133 46.1805C65.7579 39.8256 66.2138 32.7824 64.4299 26.1421C62.646 19.5019 58.7219 13.6354 53.2657 9.45148C47.8095 5.26761 41.1257 3 34.25 3C27.3743 3 20.6906 5.26761 15.2343 9.45148C9.77811 13.6354 5.85404 19.5019 4.07013 26.1421C2.28622 32.7824 2.74207 39.8256 5.36705 46.1805C7.99202 52.5354 12.6396 57.8472 18.5896 61.2928C22.1313 63.347 24.8771 66.847 24.8771 70.9428V71.7428" stroke="#1565C0" stroke-width="5" stroke-linecap="round" stroke-linejoin="round"/>
</svg>
