<svg width="75" height="87" viewBox="0 0 75 87" fill="none" xmlns="http://www.w3.org/2000/svg">
<path d="M50.05 83.9261L44.3917 62.7928M44.3917 62.7928L33.9333 72.0636L36.3042 32.6053L58.0833 65.5928L44.3917 62.7928ZM13.0667 61.6803C9.06968 57.6828 6.12023 52.7612 4.47959 47.3516C2.83894 41.942 2.55774 36.2112 3.66088 30.6669C4.76402 25.1226 7.21747 19.936 10.8039 15.5664C14.3903 11.1968 18.999 7.77907 24.2218 5.61603C29.4445 3.45298 35.1201 2.61135 40.7458 3.16568C46.3715 3.72001 51.7737 5.6532 56.4739 8.794C61.174 11.9348 65.027 16.1863 67.6916 21.1718C70.3562 26.1574 71.7502 31.7231 71.75 37.3761M21.9083 52.8428C19.3643 50.2991 17.4868 47.1673 16.4423 43.7247C15.3978 40.2821 15.2185 36.6351 15.9202 33.1066C16.6219 29.5782 18.183 26.2773 20.4653 23.4963C22.7475 20.7153 25.6804 18.5402 29.0042 17.1635C32.3279 15.7868 35.9398 15.2512 39.5201 15.6039C43.1003 15.9567 46.5382 17.187 49.5293 19.1859C52.5205 21.1848 54.9724 23.8906 56.668 27.0635C58.3636 30.2364 59.2504 33.7785 59.25 37.3761" stroke="#1565C0" stroke-width="5" stroke-linecap="round" stroke-linejoin="round"/>
</svg>
